<?xml version="1.0" encoding="utf-8"?>
<!-- Generator: Adobe Illustrator 20.1.0, SVG Export Plug-In . SVG Version: 6.00 Build 0)  -->
<svg version="1.1" id="Layer_13_copy_17" xmlns="http://www.w3.org/2000/svg" xmlns:xlink="http://www.w3.org/1999/xlink" x="0px"
	 y="0px" viewBox="0 0 576 576" style="enable-background:new 0 0 576 576;" xml:space="preserve">
<style type="text/css">
	.st0{fill:#FFFFFF;}
	.st1{fill:none;}
</style>
<g>
	<path class="st0" d="M207,207h76.5v-49.5h-126v126H207V207z M233.5,368.5H157V419h127v-64h-50.5V368.5z M234.5,356H283v62H158
		v-48.5h76.5V356z M419,207.5V157H292v50.5h38.2v26H292V284h127v-50.5h-38.2v-26H419z M418,234.5V283H293v-48.5h38.2v-28H293V158
		h125v48.5h-38.2v28H418z M292,419h127v-50.5h-76.5v-26H419V292H292V419z M293,293h125v48.5h-76.5v28H418V418H293V293z M157,356
		h50.5v-13.5H284V292H157V356z M158,293h125v48.5h-76.5V355H158V293z"/>
	<rect x="153" y="153" class="st1" width="270" height="270"/>
</g>
</svg>
