<?xml version="1.0" standalone="no"?>
<svg xmlns:xlink="http://www.w3.org/1999/xlink" id="wave" style="transform:rotate(0deg); transition: 0.3s" viewBox="0 0 1440 150" version="1.1" xmlns="http://www.w3.org/2000/svg"><defs><linearGradient id="sw-gradient-0" x1="0" x2="0" y1="1" y2="0"><stop stop-color="rgba(18, 68, 81, 1)" offset="0%"/><stop stop-color="rgba(18, 68, 81, 1)" offset="100%"/></linearGradient></defs><path style="transform:translate(0, 0px); opacity:1" fill="url(#sw-gradient-0)" d="M0,30L40,47.5C80,65,160,100,240,105C320,110,400,85,480,65C560,45,640,30,720,25C800,20,880,25,960,35C1040,45,1120,60,1200,65C1280,70,1360,65,1440,65C1520,65,1600,70,1680,80C1760,90,1840,105,1920,107.5C2000,110,2080,100,2160,87.5C2240,75,2320,60,2400,60C2480,60,2560,75,2640,85C2720,95,2800,100,2880,100C2960,100,3040,95,3120,82.5C3200,70,3280,50,3360,35C3440,20,3520,10,3600,20C3680,30,3760,60,3840,80C3920,100,4000,110,4080,97.5C4160,85,4240,50,4320,47.5C4400,45,4480,75,4560,80C4640,85,4720,65,4800,65C4880,65,4960,85,5040,80C5120,75,5200,45,5280,27.5C5360,10,5440,5,5520,2.5C5600,0,5680,0,5720,0L5760,0L5760,150L5720,150C5680,150,5600,150,5520,150C5440,150,5360,150,5280,150C5200,150,5120,150,5040,150C4960,150,4880,150,4800,150C4720,150,4640,150,4560,150C4480,150,4400,150,4320,150C4240,150,4160,150,4080,150C4000,150,3920,150,3840,150C3760,150,3680,150,3600,150C3520,150,3440,150,3360,150C3280,150,3200,150,3120,150C3040,150,2960,150,2880,150C2800,150,2720,150,2640,150C2560,150,2480,150,2400,150C2320,150,2240,150,2160,150C2080,150,2000,150,1920,150C1840,150,1760,150,1680,150C1600,150,1520,150,1440,150C1360,150,1280,150,1200,150C1120,150,1040,150,960,150C880,150,800,150,720,150C640,150,560,150,480,150C400,150,320,150,240,150C160,150,80,150,40,150L0,150Z"/></svg>